<svg xmlns="http://www.w3.org/2000/svg" viewBox="0 0 199 42"><g fill="#fff"><path d="M40.8 15.3a10.8 10.8 0 017.5-2.7 10.9 10.9 0 018.9 4l2.5-1.4a8.1 8.1 0 00-2.7-2.8 12.3 12.3 0 00-3.8-1.9 19.2 19.2 0 00-4.8-.7 16 16 0 00-7 1.6 12.8 12.8 0 00-5 4.5 11.5 11.5 0 00-1.8 6.2 10.8 10.8 0 003.9 8.4 13.9 13.9 0 009.7 3.5 16.5 16.5 0 006.8-1.4 11.2 11.2 0 004.7-3.8l-2.5-1.6A11.8 11.8 0 0142.9 30a9.3 9.3 0 01-3.7-3.4 9.2 9.2 0 01-1.4-4.7 8.5 8.5 0 013-6.6zM108.7 9.8a11.9 11.9 0 00-5.4 1.2 12.2 12.2 0 00-4.3 3.6v-4.2h-3.2v31.4H99V29.4a12.8 12.8 0 004.4 3.4 12.5 12.5 0 005.4 1.2 12.9 12.9 0 009-3.5 11.9 11.9 0 003.7-8.6 11.1 11.1 0 00-3.8-8.5 12.5 12.5 0 00-9-3.6zm8.2 16.8a8.8 8.8 0 01-3.5 3.4 10.2 10.2 0 01-4.8 1.3 9.8 9.8 0 01-5-1.3 9.5 9.5 0 01-3.6-3.3 9.1 9.1 0 01-1.2-4.7 8.7 8.7 0 012.8-6.6 9.7 9.7 0 016.9-2.7 10.2 10.2 0 014.9 1.2 8.8 8.8 0 013.5 3.4 8.9 8.9 0 011.4 4.7 8.8 8.8 0 01-1.4 4.6zM127.6 10.4h3.2v23h-3.2zM158.8 10.4H155l-6.5 8.4-6.5-8.4h-3.8l8.4 10.9-9.3 12.1h3.8l7.4-9.7 7.6 9.7h3.8l-9.5-12.1 8.4-10.9zM195.8 1.5h3.2v31.9h-3.2zM186.5 14.3a12.5 12.5 0 00-10.1-4.5 12.3 12.3 0 00-9.8 4.4 11.3 11.3 0 00-2.6 5.4h-4.4v2.6h4.1a12.3 12.3 0 003.4 8.1c2.3 2.5 5.5 3.7 9.5 3.7a15.3 15.3 0 004.9-.8 12.6 12.6 0 003.9-2.2 15.4 15.4 0 003-3.9l-2.7-1.3A10 10 0 01183 29a10.7 10.7 0 01-3 1.7 11.5 11.5 0 01-3.7.6 9.3 9.3 0 01-6.6-2.6 9 9 0 01-2.7-6.5h22.3a12.2 12.2 0 00-2.8-7.9zm-19.2 5.3a10.3 10.3 0 012.9-4.8 9.6 9.6 0 016.3-2.1 10.1 10.1 0 014.2.8 9.8 9.8 0 013.2 2.3 11.3 11.3 0 011.9 3.8zM27 14.3a12.6 12.6 0 00-10.1-4.5 12.1 12.1 0 00-9.8 4.4 11.5 11.5 0 00-2.7 5.4H0v2.6h4.2a11.8 11.8 0 003.4 8.1C9.8 32.8 13 34 17 34a14.8 14.8 0 004.9-.8 11.6 11.6 0 003.9-2.2 11.9 11.9 0 003-3.9l-2.6-1.3a13.5 13.5 0 01-2.7 3.2 13.1 13.1 0 01-3.1 1.7 11.5 11.5 0 01-3.7.6 9.2 9.2 0 01-9.3-9.1h22.3a12.8 12.8 0 00-2.7-7.9zM7.7 19.6a10.3 10.3 0 012.9-4.8 10 10 0 016.3-2.1 9.8 9.8 0 014.2.8 8.8 8.8 0 013.2 2.3 8.5 8.5 0 011.9 3.8z"/><g opacity=".7"><path d="M125.3 3.9L129 0l4 3.9-4 3.9zM64.6 21.9a12.1 12.1 0 003.7 8.8V13.1a12.3 12.3 0 00-3.7 8.8zM77 34.4a12.9 12.9 0 008.9-3.7H68.3a12 12 0 008.7 3.7zM85.9 30.7a12.7 12.7 0 003.6-8.8 12.1 12.1 0 00-3.7-8.8z"/><path d="M77 9.4a12.6 12.6 0 00-8.8 3.7h17.6A12.4 12.4 0 0077 9.4z"/></g></g></svg>